<!--?xml version="1.0" standalone="no"?-->
              <svg id="sw-js-blob-svg" viewBox="0 0 100 100" xmlns="http://www.w3.org/2000/svg" version="1.1">
                    <defs> 
                        <linearGradient id="sw-gradient" x1="0" x2="1" y1="1" y2="0">
                            <stop id="stop1" stop-color="rgba(0, 148.169, 55.315, 1)" offset="0%"></stop>
                            <stop id="stop2" stop-color="rgba(4.652, 202.812, 125.617, 1)" offset="100%"></stop>
                        </linearGradient>
                    </defs>
                <path fill="url(#sw-gradient)" d="M20.6,-35.6C27.6,-31.6,34.9,-28,39.2,-22.1C43.5,-16.2,44.8,-8.1,44.1,-0.4C43.4,7.3,40.6,14.5,36.1,20.2C31.7,25.9,25.7,29.9,19.4,33C13.1,36,6.5,38,-0.5,38.8C-7.5,39.6,-14.9,39.2,-20.7,35.9C-26.6,32.6,-30.8,26.4,-34.9,19.9C-39.1,13.5,-43.2,6.7,-43.2,0C-43.2,-6.7,-39.1,-13.5,-35.1,-20.2C-31.1,-26.9,-27.2,-33.6,-21.3,-38.2C-15.5,-42.8,-7.7,-45.5,-0.5,-44.6C6.8,-43.8,13.6,-39.5,20.6,-35.6Z" width="100%" height="100%" transform="translate(50 50)" stroke-width="0" style="transition: all 0.3s ease 0s;"></path>
              </svg>