<!--?xml version="1.0" standalone="no"?-->
              <svg id="sw-js-blob-svg" viewBox="0 0 100 100" xmlns="http://www.w3.org/2000/svg" version="1.1">
                    <defs> 
                        <linearGradient id="sw-gradient" x1="0" x2="1" y1="1" y2="0">
                            <stop id="stop1" stop-color="rgba(30.017, 6.248, 50.16, 1)" offset="0%"></stop>
                            <stop id="stop2" stop-color="rgba(204.982, 44.049, 191.58, 1)" offset="100%"></stop>
                        </linearGradient>
                    </defs>
                <path fill="url(#sw-gradient)" d="M22.2,-26.3C29.8,-20,37.6,-14,40.7,-5.8C43.8,2.4,42.2,12.9,37,20.9C31.8,28.8,23.2,34.3,14.8,34.9C6.4,35.5,-1.7,31.1,-9.6,27.7C-17.6,24.2,-25.4,21.7,-31.6,15.9C-37.8,10,-42.3,0.9,-40.3,-6.5C-38.3,-13.9,-29.7,-19.5,-21.9,-25.7C-14.1,-31.9,-7,-38.6,0.1,-38.7C7.3,-38.9,14.6,-32.5,22.2,-26.3Z" width="100%" height="100%" transform="translate(50 50)" stroke-width="0" style="transition: all 0.3s ease 0s;" stroke="url(#sw-gradient)"></path>
              </svg>